<svg width="27" height="24" viewBox="0 0 27 24" fill="none" xmlns="http://www.w3.org/2000/svg">
<rect width="27" height="23.3514" rx="3.44769" fill="#8B0000"/>
<mask id="mask0_43_175" style="mask-type:alpha" maskUnits="userSpaceOnUse" x="6" y="4" width="15" height="15">
<rect x="6.56757" y="4.74316" width="13.8649" height="13.8649" fill="#D9D9D9"/>
</mask>
<g mask="url(#mask0_43_175)">
<path d="M11.7669 9.3649V8.20949H15.2331V9.3649H11.7669ZM10.6115 17.4527C10.2937 17.4527 10.0217 17.3396 9.79547 17.1133C9.56921 16.8871 9.45607 16.6151 9.45607 16.2973C9.45607 15.9796 9.56921 15.7076 9.79547 15.4813C10.0217 15.2551 10.2937 15.1419 10.6115 15.1419C10.9292 15.1419 11.2012 15.2551 11.4275 15.4813C11.6538 15.7076 11.7669 15.9796 11.7669 16.2973C11.7669 16.6151 11.6538 16.8871 11.4275 17.1133C11.2012 17.3396 10.9292 17.4527 10.6115 17.4527ZM16.3885 17.4527C16.0708 17.4527 15.7988 17.3396 15.5725 17.1133C15.3462 16.8871 15.2331 16.6151 15.2331 16.2973C15.2331 15.9796 15.3462 15.7076 15.5725 15.4813C15.7988 15.2551 16.0708 15.1419 16.3885 15.1419C16.7062 15.1419 16.9782 15.2551 17.2045 15.4813C17.4308 15.7076 17.5439 15.9796 17.5439 16.2973C17.5439 16.6151 17.4308 16.8871 17.2045 17.1133C16.9782 17.3396 16.7062 17.4527 16.3885 17.4527ZM7.14526 7.05409V5.89868H9.03724L11.4925 11.098H15.5364L17.7894 7.05409H19.1037L16.5618 11.6468C16.4559 11.8394 16.3139 11.9886 16.1358 12.0945C15.9576 12.2005 15.7627 12.2534 15.5508 12.2534H11.247L10.6115 13.4088H17.5439V14.5642H10.6115C10.1782 14.5642 9.84843 14.3765 9.62216 14.001C9.3959 13.6255 9.38868 13.2451 9.6005 12.86L10.3804 11.4446L8.30067 7.05409H7.14526Z" fill="white"/>
</g>
</svg>
