<svg width="17" height="16" viewBox="0 0 17 16" fill="none" xmlns="http://www.w3.org/2000/svg">
<path d="M7.61276 1.43887C8.00555 0.786178 8.95181 0.786177 9.3446 1.43887L11.2519 4.60807C11.393 4.84255 11.6231 5.00978 11.8898 5.07153L15.4932 5.9061C16.2353 6.07798 16.5278 6.97792 16.0284 7.55318L13.6037 10.3464C13.4243 10.5531 13.3364 10.8237 13.36 11.0963L13.6798 14.7813C13.7457 15.5402 12.9802 16.0964 12.2787 15.7993L8.87292 14.3564C8.62093 14.2496 8.33643 14.2496 8.08444 14.3564L4.67863 15.7993C3.97721 16.0964 3.21167 15.5402 3.27753 14.7813L3.59734 11.0963C3.621 10.8237 3.53309 10.5531 3.35369 10.3464L0.928972 7.55318C0.429607 6.97792 0.722015 6.07798 1.46414 5.9061L5.06761 5.07153C5.33422 5.00978 5.56439 4.84255 5.7055 4.60807L7.61276 1.43887Z" fill="#8B0000"/>
</svg>
