<svg width="16" height="16" viewBox="0 0 16 16" fill="none" xmlns="http://www.w3.org/2000/svg">
<path d="M7.22982 1.43887C7.62262 0.786178 8.56887 0.786177 8.96167 1.43887L10.8689 4.60807C11.01 4.84255 11.2402 5.00978 11.5068 5.07153L15.1103 5.9061C15.8524 6.07798 16.1448 6.97792 15.6455 7.55318L13.2207 10.3464C13.0413 10.5531 12.9534 10.8237 12.9771 11.0963L13.2969 14.7813C13.3628 15.5402 12.5972 16.0964 11.8958 15.7993L8.48998 14.3564C8.238 14.2496 7.95349 14.2496 7.70151 14.3564L4.29569 15.7993C3.59427 16.0964 2.82873 15.5402 2.8946 14.7813L3.21441 11.0963C3.23807 10.8237 3.15015 10.5531 2.97075 10.3464L0.546038 7.55318C0.0466725 6.97792 0.33908 6.07798 1.08121 5.9061L4.68467 5.07153C4.95128 5.00978 5.18145 4.84255 5.32257 4.60807L7.22982 1.43887Z" fill="#8B0000"/>
</svg>
