<svg width="16" height="16" viewBox="0 0 16 16" fill="none" xmlns="http://www.w3.org/2000/svg">
<path d="M7.42908 1.69922C7.62551 1.37327 8.09786 1.37329 8.29431 1.69922L10.2015 4.86816C10.4132 5.2198 10.7588 5.4708 11.1586 5.56348L14.7621 6.39844C15.1331 6.48437 15.2793 6.93405 15.0297 7.22168L12.6049 10.0156C12.3361 10.3255 12.2043 10.731 12.2396 11.1396L12.5599 14.8252C12.5927 15.2045 12.2094 15.4825 11.8588 15.334L8.45349 13.8906C8.07551 13.7305 7.64788 13.7305 7.2699 13.8906L3.86462 15.334C3.51396 15.4825 3.13161 15.2046 3.16443 14.8252L3.48376 11.1396C3.51914 10.731 3.38735 10.3255 3.11853 10.0156L0.693726 7.22168C0.444156 6.93404 0.590283 6.48437 0.961304 6.39844L4.56482 5.56348C4.96465 5.47082 5.31022 5.21982 5.52185 4.86816L7.42908 1.69922Z" stroke="#8B0000" stroke-width="1.01064"/>
</svg>
