<svg width="17" height="16" viewBox="0 0 17 16" fill="none" xmlns="http://www.w3.org/2000/svg">
<path d="M7.80428 1.43887C8.19708 0.786178 9.14334 0.786177 9.53613 1.43887L11.4434 4.60807C11.5845 4.84255 11.8147 5.00978 12.0813 5.07153L15.6847 5.9061C16.4269 6.07798 16.7193 6.97792 16.2199 7.55318L13.7952 10.3464C13.6158 10.5531 13.5279 10.8237 13.5515 11.0963L13.8714 14.7813C13.9372 15.5402 13.1717 16.0964 12.4703 15.7993L9.06445 14.3564C8.81246 14.2496 8.52795 14.2496 8.27597 14.3564L4.87016 15.7993C4.16874 16.0964 3.4032 15.5402 3.46906 14.7813L3.78887 11.0963C3.81253 10.8237 3.72461 10.5531 3.54522 10.3464L1.1205 7.55318C0.621135 6.97792 0.913543 6.07798 1.65567 5.9061L5.25913 5.07153C5.52574 5.00978 5.75592 4.84255 5.89703 4.60807L7.80428 1.43887Z" fill="#8B0000"/>
</svg>
