<svg width="17" height="16" viewBox="0 0 17 16" fill="none" xmlns="http://www.w3.org/2000/svg">
<path d="M7.42129 1.43887C7.81408 0.786178 8.76034 0.786177 9.15314 1.43887L11.0604 4.60807C11.2015 4.84255 11.4317 5.00978 11.6983 5.07153L15.3018 5.9061C16.0439 6.07798 16.3363 6.97792 15.8369 7.55318L13.4122 10.3464C13.2328 10.5531 13.1449 10.8237 13.1686 11.0963L13.4884 14.7813C13.5542 15.5402 12.7887 16.0964 12.0873 15.7993L8.68145 14.3564C8.42947 14.2496 8.14496 14.2496 7.89297 14.3564L4.48716 15.7993C3.78574 16.0964 3.0202 15.5402 3.08607 14.7813L3.40587 11.0963C3.42954 10.8237 3.34162 10.5531 3.16222 10.3464L0.737505 7.55318C0.23814 6.97792 0.530548 6.07798 1.27267 5.9061L4.87614 5.07153C5.14275 5.00978 5.37292 4.84255 5.51403 4.60807L7.42129 1.43887Z" fill="#8B0000"/>
</svg>
